<?xml version="1.0" encoding="UTF-8" standalone="no"?>
<!DOCTYPE svg PUBLIC "-//W3C//DTD SVG 1.1//EN"
 "http://www.w3.org/Graphics/SVG/1.1/DTD/svg11.dtd">
<!-- Generated by graphviz version 2.47.0 (20210316.0004)
 -->
<!-- Title: dependencies Pages: 1 -->
<svg width="504pt" height="211pt"
 viewBox="0.00 0.00 504.00 211.00" xmlns="http://www.w3.org/2000/svg" xmlns:xlink="http://www.w3.org/1999/xlink">
<g id="graph0" class="graph" transform="scale(1 1) rotate(0) translate(4 207)">
<title>dependencies</title>
<polygon fill="white" stroke="transparent" points="-4,4 -4,-207 500,-207 500,4 -4,4"/>
<text text-anchor="start" x="227.01" y="-42.4" font-family="Times-12" font-weight="bold" font-size="14.00">Legend</text>
<polygon fill="#ffffb3" stroke="transparent" points="14,-10 14,-30 34,-30 34,-10 14,-10"/>
<text text-anchor="start" x="37.63" y="-15.4" font-family="Times-12" font-size="14.00"> &#160;Declarations</text>
<polygon fill="#8dd3c7" stroke="transparent" points="127,-10 127,-30 147,-30 147,-10 127,-10"/>
<text text-anchor="start" x="150.73" y="-15.4" font-family="Times-12" font-size="14.00"> &#160;Module</text>
<polygon fill="#80b1d3" stroke="transparent" points="213,-10 213,-30 233,-30 233,-10 213,-10"/>
<text text-anchor="start" x="236.78" y="-15.4" font-family="Times-12" font-size="14.00"> &#160;Bootstrap</text>
<polygon fill="#fdb462" stroke="transparent" points="310,-10 310,-30 330,-30 330,-10 310,-10"/>
<text text-anchor="start" x="333.67" y="-15.4" font-family="Times-12" font-size="14.00"> &#160;Providers</text>
<polygon fill="#fb8072" stroke="transparent" points="406,-10 406,-30 426,-30 426,-10 406,-10"/>
<text text-anchor="start" x="429.73" y="-15.4" font-family="Times-12" font-size="14.00"> &#160;Exports</text>
<g id="clust1" class="cluster">
<title>cluster_PlansModule</title>
<polygon fill="none" stroke="black" stroke-dasharray="1,5" points="117,-70 117,-195 379,-195 379,-70 117,-70"/>
</g>
<g id="clust3" class="cluster">
<title>cluster_PlansModule_imports</title>
<polygon fill="none" stroke="black" points="125,-78 125,-130 371,-130 371,-78 125,-78"/>
</g>
<!-- ExercisesModule -->
<g id="node1" class="node">
<title>ExercisesModule</title>
<polygon fill="#8dd3c7" stroke="black" points="362.69,-122 359.69,-126 338.69,-126 335.69,-122 249.31,-122 249.31,-86 362.69,-86 362.69,-122"/>
<text text-anchor="middle" x="306" y="-99.8" font-family="Times,serif" font-size="14.00">ExercisesModule</text>
</g>
<!-- PlansModule -->
<g id="node3" class="node">
<title>PlansModule</title>
<polygon fill="#8dd3c7" stroke="black" points="288.88,-187 285.88,-191 264.88,-191 261.88,-187 199.12,-187 199.12,-151 288.88,-151 288.88,-187"/>
<text text-anchor="middle" x="244" y="-164.8" font-family="Times,serif" font-size="14.00">PlansModule</text>
</g>
<!-- ExercisesModule&#45;&gt;PlansModule -->
<g id="edge1" class="edge">
<title>ExercisesModule&#45;&gt;PlansModule</title>
<path fill="none" stroke="black" d="M269.17,-122.11C269.17,-122.11 269.17,-140.99 269.17,-140.99"/>
<polygon fill="black" stroke="black" points="265.67,-140.99 269.17,-150.99 272.67,-140.99 265.67,-140.99"/>
</g>
<!-- SharedModule -->
<g id="node2" class="node">
<title>SharedModule</title>
<polygon fill="#8dd3c7" stroke="black" points="231.42,-122 228.42,-126 207.42,-126 204.42,-122 132.58,-122 132.58,-86 231.42,-86 231.42,-122"/>
<text text-anchor="middle" x="182" y="-99.8" font-family="Times,serif" font-size="14.00">SharedModule</text>
</g>
<!-- SharedModule&#45;&gt;PlansModule -->
<g id="edge2" class="edge">
<title>SharedModule&#45;&gt;PlansModule</title>
<path fill="none" stroke="black" d="M215.13,-122.11C215.13,-122.11 215.13,-140.99 215.13,-140.99"/>
<polygon fill="black" stroke="black" points="211.64,-140.99 215.13,-150.99 218.64,-140.99 211.64,-140.99"/>
</g>
</g>
</svg>
