<?xml version="1.0" encoding="UTF-8" standalone="no"?>
<!DOCTYPE svg PUBLIC "-//W3C//DTD SVG 1.1//EN"
 "http://www.w3.org/Graphics/SVG/1.1/DTD/svg11.dtd">
<!-- Generated by graphviz version 2.47.0 (20210316.0004)
 -->
<!-- Title: dependencies Pages: 1 -->
<svg width="875pt" height="211pt"
 viewBox="0.00 0.00 875.00 211.00" xmlns="http://www.w3.org/2000/svg" xmlns:xlink="http://www.w3.org/1999/xlink">
<g id="graph0" class="graph" transform="scale(1 1) rotate(0) translate(4 207)">
<title>dependencies</title>
<polygon fill="white" stroke="transparent" points="-4,4 -4,-207 871,-207 871,4 -4,4"/>
<text text-anchor="start" x="412.51" y="-42.4" font-family="Times-12" font-weight="bold" font-size="14.00">Legend</text>
<polygon fill="#ffffb3" stroke="transparent" points="199.5,-10 199.5,-30 219.5,-30 219.5,-10 199.5,-10"/>
<text text-anchor="start" x="223.13" y="-15.4" font-family="Times-12" font-size="14.00"> &#160;Declarations</text>
<polygon fill="#8dd3c7" stroke="transparent" points="312.5,-10 312.5,-30 332.5,-30 332.5,-10 312.5,-10"/>
<text text-anchor="start" x="336.23" y="-15.4" font-family="Times-12" font-size="14.00"> &#160;Module</text>
<polygon fill="#80b1d3" stroke="transparent" points="398.5,-10 398.5,-30 418.5,-30 418.5,-10 398.5,-10"/>
<text text-anchor="start" x="422.28" y="-15.4" font-family="Times-12" font-size="14.00"> &#160;Bootstrap</text>
<polygon fill="#fdb462" stroke="transparent" points="495.5,-10 495.5,-30 515.5,-30 515.5,-10 495.5,-10"/>
<text text-anchor="start" x="519.17" y="-15.4" font-family="Times-12" font-size="14.00"> &#160;Providers</text>
<polygon fill="#fb8072" stroke="transparent" points="591.5,-10 591.5,-30 611.5,-30 611.5,-10 591.5,-10"/>
<text text-anchor="start" x="615.23" y="-15.4" font-family="Times-12" font-size="14.00"> &#160;Exports</text>
<g id="clust1" class="cluster">
<title>cluster_AppModule</title>
<polygon fill="none" stroke="black" stroke-dasharray="1,5" points="8,-70 8,-195 859,-195 859,-70 8,-70"/>
</g>
<g id="clust6" class="cluster">
<title>cluster_AppModule_providers</title>
<polygon fill="none" stroke="black" points="721,-78 721,-130 851,-130 851,-78 721,-78"/>
</g>
<g id="clust3" class="cluster">
<title>cluster_AppModule_imports</title>
<polygon fill="none" stroke="black" points="16,-78 16,-130 713,-130 713,-78 16,-78"/>
</g>
<!-- AuthModule -->
<g id="node1" class="node">
<title>AuthModule</title>
<polygon fill="#8dd3c7" stroke="black" points="704.55,-122 701.55,-126 680.55,-126 677.55,-122 617.45,-122 617.45,-86 704.55,-86 704.55,-122"/>
<text text-anchor="middle" x="661" y="-99.8" font-family="Times,serif" font-size="14.00">AuthModule</text>
</g>
<!-- AppModule -->
<g id="node7" class="node">
<title>AppModule</title>
<polygon fill="#8dd3c7" stroke="black" points="464.66,-187 461.66,-191 440.66,-191 437.66,-187 381.34,-187 381.34,-151 464.66,-151 464.66,-187"/>
<text text-anchor="middle" x="423" y="-164.8" font-family="Times,serif" font-size="14.00">AppModule</text>
</g>
<!-- AuthModule&#45;&gt;AppModule -->
<g id="edge1" class="edge">
<title>AuthModule&#45;&gt;AppModule</title>
<path fill="none" stroke="black" d="M661,-122.11C661,-141.34 661,-169 661,-169 661,-169 474.73,-169 474.73,-169"/>
<polygon fill="black" stroke="black" points="474.73,-165.5 464.73,-169 474.73,-172.5 474.73,-165.5"/>
</g>
<!-- ExercisesModule -->
<g id="node2" class="node">
<title>ExercisesModule</title>
<polygon fill="#8dd3c7" stroke="black" points="599.69,-122 596.69,-126 575.69,-126 572.69,-122 486.31,-122 486.31,-86 599.69,-86 599.69,-122"/>
<text text-anchor="middle" x="543" y="-99.8" font-family="Times,serif" font-size="14.00">ExercisesModule</text>
</g>
<!-- ExercisesModule&#45;&gt;AppModule -->
<g id="edge2" class="edge">
<title>ExercisesModule&#45;&gt;AppModule</title>
<path fill="none" stroke="black" d="M543,-122.03C543,-138.4 543,-160 543,-160 543,-160 474.97,-160 474.97,-160"/>
<polygon fill="black" stroke="black" points="474.97,-156.5 464.97,-160 474.97,-163.5 474.97,-156.5"/>
</g>
<!-- PlansModule -->
<g id="node3" class="node">
<title>PlansModule</title>
<polygon fill="#8dd3c7" stroke="black" points="467.88,-122 464.88,-126 443.88,-126 440.88,-122 378.12,-122 378.12,-86 467.88,-86 467.88,-122"/>
<text text-anchor="middle" x="423" y="-99.8" font-family="Times,serif" font-size="14.00">PlansModule</text>
</g>
<!-- PlansModule&#45;&gt;AppModule -->
<g id="edge3" class="edge">
<title>PlansModule&#45;&gt;AppModule</title>
<path fill="none" stroke="black" d="M423,-122.11C423,-122.11 423,-140.99 423,-140.99"/>
<polygon fill="black" stroke="black" points="419.5,-140.99 423,-150.99 426.5,-140.99 419.5,-140.99"/>
</g>
<!-- RoutinesModule -->
<g id="node4" class="node">
<title>RoutinesModule</title>
<polygon fill="#8dd3c7" stroke="black" points="359.83,-122 356.83,-126 335.83,-126 332.83,-122 250.17,-122 250.17,-86 359.83,-86 359.83,-122"/>
<text text-anchor="middle" x="305" y="-99.8" font-family="Times,serif" font-size="14.00">RoutinesModule</text>
</g>
<!-- RoutinesModule&#45;&gt;AppModule -->
<g id="edge4" class="edge">
<title>RoutinesModule&#45;&gt;AppModule</title>
<path fill="none" stroke="black" d="M305,-122.03C305,-138.4 305,-160 305,-160 305,-160 371.07,-160 371.07,-160"/>
<polygon fill="black" stroke="black" points="371.07,-163.5 381.07,-160 371.07,-156.5 371.07,-163.5"/>
</g>
<!-- SharedModule -->
<g id="node5" class="node">
<title>SharedModule</title>
<polygon fill="#8dd3c7" stroke="black" points="232.42,-122 229.42,-126 208.42,-126 205.42,-122 133.58,-122 133.58,-86 232.42,-86 232.42,-122"/>
<text text-anchor="middle" x="183" y="-99.8" font-family="Times,serif" font-size="14.00">SharedModule</text>
</g>
<!-- SharedModule&#45;&gt;AppModule -->
<g id="edge5" class="edge">
<title>SharedModule&#45;&gt;AppModule</title>
<path fill="none" stroke="black" d="M183,-122.11C183,-141.34 183,-169 183,-169 183,-169 371.2,-169 371.2,-169"/>
<polygon fill="black" stroke="black" points="371.2,-172.5 381.2,-169 371.2,-165.5 371.2,-172.5"/>
</g>
<!-- UsersModule -->
<g id="node6" class="node">
<title>UsersModule</title>
<polygon fill="#8dd3c7" stroke="black" points="115.92,-122 112.92,-126 91.92,-126 88.92,-122 24.08,-122 24.08,-86 115.92,-86 115.92,-122"/>
<text text-anchor="middle" x="70" y="-99.8" font-family="Times,serif" font-size="14.00">UsersModule</text>
</g>
<!-- UsersModule&#45;&gt;AppModule -->
<g id="edge6" class="edge">
<title>UsersModule&#45;&gt;AppModule</title>
<path fill="none" stroke="black" d="M70,-122.29C70,-144.21 70,-178 70,-178 70,-178 371.12,-178 371.12,-178"/>
<polygon fill="black" stroke="black" points="371.12,-181.5 381.12,-178 371.12,-174.5 371.12,-181.5"/>
</g>
<!-- AppService -->
<g id="node8" class="node">
<title>AppService</title>
<ellipse fill="#fdb462" stroke="black" cx="786" cy="-104" rx="56.74" ry="18"/>
<text text-anchor="middle" x="786" y="-99.8" font-family="Times,serif" font-size="14.00">AppService</text>
</g>
<!-- AppService&#45;&gt;AppModule -->
<g id="edge7" class="edge">
<title>AppService&#45;&gt;AppModule</title>
<path fill="none" stroke="black" d="M786,-122.29C786,-144.21 786,-178 786,-178 786,-178 475,-178 475,-178"/>
<polygon fill="black" stroke="black" points="475,-174.5 465,-178 475,-181.5 475,-174.5"/>
</g>
</g>
</svg>
