<?xml version="1.0" encoding="UTF-8" standalone="no"?>
<!DOCTYPE svg PUBLIC "-//W3C//DTD SVG 1.1//EN"
 "http://www.w3.org/Graphics/SVG/1.1/DTD/svg11.dtd">
<!-- Generated by graphviz version 2.47.0 (20210316.0004)
 -->
<!-- Title: dependencies Pages: 1 -->
<svg width="758pt" height="211pt"
 viewBox="0.00 0.00 758.00 211.00" xmlns="http://www.w3.org/2000/svg" xmlns:xlink="http://www.w3.org/1999/xlink">
<g id="graph0" class="graph" transform="scale(1 1) rotate(0) translate(4 207)">
<title>dependencies</title>
<polygon fill="white" stroke="transparent" points="-4,4 -4,-207 754,-207 754,4 -4,4"/>
<text text-anchor="start" x="354.01" y="-42.4" font-family="Times-12" font-weight="bold" font-size="14.00">Legend</text>
<polygon fill="#ffffb3" stroke="transparent" points="141,-10 141,-30 161,-30 161,-10 141,-10"/>
<text text-anchor="start" x="164.63" y="-15.4" font-family="Times-12" font-size="14.00"> &#160;Declarations</text>
<polygon fill="#8dd3c7" stroke="transparent" points="254,-10 254,-30 274,-30 274,-10 254,-10"/>
<text text-anchor="start" x="277.73" y="-15.4" font-family="Times-12" font-size="14.00"> &#160;Module</text>
<polygon fill="#80b1d3" stroke="transparent" points="340,-10 340,-30 360,-30 360,-10 340,-10"/>
<text text-anchor="start" x="363.78" y="-15.4" font-family="Times-12" font-size="14.00"> &#160;Bootstrap</text>
<polygon fill="#fdb462" stroke="transparent" points="437,-10 437,-30 457,-30 457,-10 437,-10"/>
<text text-anchor="start" x="460.67" y="-15.4" font-family="Times-12" font-size="14.00"> &#160;Providers</text>
<polygon fill="#fb8072" stroke="transparent" points="533,-10 533,-30 553,-30 553,-10 533,-10"/>
<text text-anchor="start" x="556.73" y="-15.4" font-family="Times-12" font-size="14.00"> &#160;Exports</text>
<g id="clust1" class="cluster">
<title>cluster_AppModule</title>
<polygon fill="none" stroke="black" stroke-dasharray="1,5" points="8,-70 8,-195 742,-195 742,-70 8,-70"/>
</g>
<g id="clust3" class="cluster">
<title>cluster_AppModule_imports</title>
<polygon fill="none" stroke="black" points="154,-78 154,-130 734,-130 734,-78 154,-78"/>
</g>
<g id="clust6" class="cluster">
<title>cluster_AppModule_providers</title>
<polygon fill="none" stroke="black" points="16,-78 16,-130 146,-130 146,-78 16,-78"/>
</g>
<!-- AuthModule -->
<g id="node1" class="node">
<title>AuthModule</title>
<polygon fill="#8dd3c7" stroke="black" points="725.55,-122 722.55,-126 701.55,-126 698.55,-122 638.45,-122 638.45,-86 725.55,-86 725.55,-122"/>
<text text-anchor="middle" x="682" y="-99.8" font-family="Times,serif" font-size="14.00">AuthModule</text>
</g>
<!-- AppModule -->
<g id="node6" class="node">
<title>AppModule</title>
<polygon fill="#8dd3c7" stroke="black" points="426.66,-187 423.66,-191 402.66,-191 399.66,-187 343.34,-187 343.34,-151 426.66,-151 426.66,-187"/>
<text text-anchor="middle" x="385" y="-164.8" font-family="Times,serif" font-size="14.00">AppModule</text>
</g>
<!-- AuthModule&#45;&gt;AppModule -->
<g id="edge1" class="edge">
<title>AuthModule&#45;&gt;AppModule</title>
<path fill="none" stroke="black" d="M682,-122.28C682,-143.32 682,-175 682,-175 682,-175 436.92,-175 436.92,-175"/>
<polygon fill="black" stroke="black" points="436.92,-171.5 426.92,-175 436.92,-178.5 436.92,-171.5"/>
</g>
<!-- ExercisesModule -->
<g id="node2" class="node">
<title>ExercisesModule</title>
<polygon fill="#8dd3c7" stroke="black" points="620.69,-122 617.69,-126 596.69,-126 593.69,-122 507.31,-122 507.31,-86 620.69,-86 620.69,-122"/>
<text text-anchor="middle" x="564" y="-99.8" font-family="Times,serif" font-size="14.00">ExercisesModule</text>
</g>
<!-- ExercisesModule&#45;&gt;AppModule -->
<g id="edge2" class="edge">
<title>ExercisesModule&#45;&gt;AppModule</title>
<path fill="none" stroke="black" d="M564,-122.02C564,-139.37 564,-163 564,-163 564,-163 436.97,-163 436.97,-163"/>
<polygon fill="black" stroke="black" points="436.97,-159.5 426.97,-163 436.97,-166.5 436.97,-159.5"/>
</g>
<!-- PlansModule -->
<g id="node3" class="node">
<title>PlansModule</title>
<polygon fill="#8dd3c7" stroke="black" points="488.88,-122 485.88,-126 464.88,-126 461.88,-122 399.12,-122 399.12,-86 488.88,-86 488.88,-122"/>
<text text-anchor="middle" x="444" y="-99.8" font-family="Times,serif" font-size="14.00">PlansModule</text>
</g>
<!-- PlansModule&#45;&gt;AppModule -->
<g id="edge3" class="edge">
<title>PlansModule&#45;&gt;AppModule</title>
<path fill="none" stroke="black" d="M412.94,-122.11C412.94,-122.11 412.94,-140.99 412.94,-140.99"/>
<polygon fill="black" stroke="black" points="409.44,-140.99 412.94,-150.99 416.44,-140.99 409.44,-140.99"/>
</g>
<!-- RoutinesModule -->
<g id="node4" class="node">
<title>RoutinesModule</title>
<polygon fill="#8dd3c7" stroke="black" points="380.83,-122 377.83,-126 356.83,-126 353.83,-122 271.17,-122 271.17,-86 380.83,-86 380.83,-122"/>
<text text-anchor="middle" x="326" y="-99.8" font-family="Times,serif" font-size="14.00">RoutinesModule</text>
</g>
<!-- RoutinesModule&#45;&gt;AppModule -->
<g id="edge4" class="edge">
<title>RoutinesModule&#45;&gt;AppModule</title>
<path fill="none" stroke="black" d="M361.92,-122.11C361.92,-122.11 361.92,-140.99 361.92,-140.99"/>
<polygon fill="black" stroke="black" points="358.42,-140.99 361.92,-150.99 365.42,-140.99 358.42,-140.99"/>
</g>
<!-- UsersModule -->
<g id="node5" class="node">
<title>UsersModule</title>
<polygon fill="#8dd3c7" stroke="black" points="253.92,-122 250.92,-126 229.92,-126 226.92,-122 162.08,-122 162.08,-86 253.92,-86 253.92,-122"/>
<text text-anchor="middle" x="208" y="-99.8" font-family="Times,serif" font-size="14.00">UsersModule</text>
</g>
<!-- UsersModule&#45;&gt;AppModule -->
<g id="edge5" class="edge">
<title>UsersModule&#45;&gt;AppModule</title>
<path fill="none" stroke="black" d="M208,-122.02C208,-139.37 208,-163 208,-163 208,-163 333.05,-163 333.05,-163"/>
<polygon fill="black" stroke="black" points="333.05,-166.5 343.05,-163 333.05,-159.5 333.05,-166.5"/>
</g>
<!-- AppService -->
<g id="node7" class="node">
<title>AppService</title>
<ellipse fill="#fdb462" stroke="black" cx="81" cy="-104" rx="56.74" ry="18"/>
<text text-anchor="middle" x="81" y="-99.8" font-family="Times,serif" font-size="14.00">AppService</text>
</g>
<!-- AppService&#45;&gt;AppModule -->
<g id="edge6" class="edge">
<title>AppService&#45;&gt;AppModule</title>
<path fill="none" stroke="black" d="M81,-122.28C81,-143.32 81,-175 81,-175 81,-175 333.05,-175 333.05,-175"/>
<polygon fill="black" stroke="black" points="333.05,-178.5 343.05,-175 333.05,-171.5 333.05,-178.5"/>
</g>
</g>
</svg>
