<?xml version="1.0" encoding="UTF-8" standalone="no"?>
<!DOCTYPE svg PUBLIC "-//W3C//DTD SVG 1.1//EN"
 "http://www.w3.org/Graphics/SVG/1.1/DTD/svg11.dtd">
<!-- Generated by graphviz version 2.47.0 (20210316.0004)
 -->
<!-- Title: dependencies Pages: 1 -->
<svg width="807pt" height="355pt"
 viewBox="0.00 0.00 807.00 355.00" xmlns="http://www.w3.org/2000/svg" xmlns:xlink="http://www.w3.org/1999/xlink">
<g id="graph0" class="graph" transform="scale(1 1) rotate(0) translate(4 351)">
<title>dependencies</title>
<polygon fill="white" stroke="transparent" points="-4,4 -4,-351 803,-351 803,4 -4,4"/>
<text text-anchor="start" x="378.51" y="-42.4" font-family="Times-12" font-weight="bold" font-size="14.00">Legend</text>
<polygon fill="#ffffb3" stroke="transparent" points="165.5,-10 165.5,-30 185.5,-30 185.5,-10 165.5,-10"/>
<text text-anchor="start" x="189.13" y="-15.4" font-family="Times-12" font-size="14.00"> &#160;Declarations</text>
<polygon fill="#8dd3c7" stroke="transparent" points="278.5,-10 278.5,-30 298.5,-30 298.5,-10 278.5,-10"/>
<text text-anchor="start" x="302.23" y="-15.4" font-family="Times-12" font-size="14.00"> &#160;Module</text>
<polygon fill="#80b1d3" stroke="transparent" points="364.5,-10 364.5,-30 384.5,-30 384.5,-10 364.5,-10"/>
<text text-anchor="start" x="388.28" y="-15.4" font-family="Times-12" font-size="14.00"> &#160;Bootstrap</text>
<polygon fill="#fdb462" stroke="transparent" points="461.5,-10 461.5,-30 481.5,-30 481.5,-10 461.5,-10"/>
<text text-anchor="start" x="485.17" y="-15.4" font-family="Times-12" font-size="14.00"> &#160;Providers</text>
<polygon fill="#fb8072" stroke="transparent" points="557.5,-10 557.5,-30 577.5,-30 577.5,-10 557.5,-10"/>
<text text-anchor="start" x="581.23" y="-15.4" font-family="Times-12" font-size="14.00"> &#160;Exports</text>
<g id="clust1" class="cluster">
<title>cluster_AppModule</title>
<polygon fill="none" stroke="black" stroke-dasharray="1,5" points="8,-146 8,-339 637,-339 637,-146 8,-146"/>
</g>
<g id="clust3" class="cluster">
<title>cluster_AppModule_imports</title>
<polygon fill="none" stroke="black" points="154,-154 154,-274 629,-274 629,-154 154,-154"/>
</g>
<g id="clust6" class="cluster">
<title>cluster_AppModule_providers</title>
<polygon fill="none" stroke="black" points="16,-222 16,-274 146,-274 146,-222 16,-222"/>
</g>
<g id="clust7" class="cluster">
<title>cluster_AuthModule</title>
<polygon fill="none" stroke="black" stroke-dasharray="1,5" points="645,-146 645,-214 791,-214 791,-146 645,-146"/>
</g>
<g id="clust12" class="cluster">
<title>cluster_AuthModule_providers</title>
<polygon fill="none" stroke="black" points="653,-154 653,-206 783,-206 783,-154 653,-154"/>
</g>
<g id="clust19" class="cluster">
<title>cluster_PlansModule</title>
<polygon fill="none" stroke="black" stroke-dasharray="1,5" points="233,-70 233,-138 387,-138 387,-70 233,-70"/>
</g>
<g id="clust24" class="cluster">
<title>cluster_PlansModule_providers</title>
<polygon fill="none" stroke="black" points="241,-78 241,-130 379,-130 379,-78 241,-78"/>
</g>
<g id="clust25" class="cluster">
<title>cluster_RoutinesModule</title>
<polygon fill="none" stroke="black" stroke-dasharray="1,5" points="395,-70 395,-138 575,-138 575,-70 395,-70"/>
</g>
<g id="clust30" class="cluster">
<title>cluster_RoutinesModule_providers</title>
<polygon fill="none" stroke="black" points="403,-78 403,-130 567,-130 567,-78 403,-78"/>
</g>
<!-- AuthModule -->
<g id="node1" class="node">
<title>AuthModule</title>
<polygon fill="#8dd3c7" stroke="black" points="618.55,-266 615.55,-270 594.55,-270 591.55,-266 531.45,-266 531.45,-230 618.55,-230 618.55,-266"/>
<text text-anchor="middle" x="575" y="-243.8" font-family="Times,serif" font-size="14.00">AuthModule</text>
</g>
<!-- AppModule -->
<g id="node6" class="node">
<title>AppModule</title>
<polygon fill="#8dd3c7" stroke="black" points="426.66,-331 423.66,-335 402.66,-335 399.66,-331 343.34,-331 343.34,-295 426.66,-295 426.66,-331"/>
<text text-anchor="middle" x="385" y="-308.8" font-family="Times,serif" font-size="14.00">AppModule</text>
</g>
<!-- AuthModule&#45;&gt;AppModule -->
<g id="edge1" class="edge">
<title>AuthModule&#45;&gt;AppModule</title>
<path fill="none" stroke="black" d="M531.45,-254C485.19,-254 418.66,-254 418.66,-254 418.66,-254 418.66,-284.98 418.66,-284.98"/>
<polygon fill="black" stroke="black" points="415.16,-284.98 418.66,-294.98 422.16,-284.98 415.16,-284.98"/>
</g>
<!-- ExercisesModule -->
<g id="node2" class="node">
<title>ExercisesModule</title>
<polygon fill="#8dd3c7" stroke="black" points="275.69,-198 272.69,-202 251.69,-202 248.69,-198 162.31,-198 162.31,-162 275.69,-162 275.69,-198"/>
<text text-anchor="middle" x="219" y="-175.8" font-family="Times,serif" font-size="14.00">ExercisesModule</text>
</g>
<!-- ExercisesModule&#45;&gt;AppModule -->
<g id="edge2" class="edge">
<title>ExercisesModule&#45;&gt;AppModule</title>
<path fill="none" stroke="black" d="M219,-198.21C219,-234.64 219,-313 219,-313 219,-313 333.11,-313 333.11,-313"/>
<polygon fill="black" stroke="black" points="333.11,-316.5 343.11,-313 333.11,-309.5 333.11,-316.5"/>
</g>
<!-- PlansModule -->
<g id="node3" class="node">
<title>PlansModule</title>
<polygon fill="#8dd3c7" stroke="black" points="383.88,-198 380.88,-202 359.88,-202 356.88,-198 294.12,-198 294.12,-162 383.88,-162 383.88,-198"/>
<text text-anchor="middle" x="339" y="-175.8" font-family="Times,serif" font-size="14.00">PlansModule</text>
</g>
<!-- PlansModule&#45;&gt;AppModule -->
<g id="edge3" class="edge">
<title>PlansModule&#45;&gt;AppModule</title>
<path fill="none" stroke="black" d="M370.35,-198.21C370.35,-198.21 370.35,-284.58 370.35,-284.58"/>
<polygon fill="black" stroke="black" points="366.85,-284.58 370.35,-294.58 373.85,-284.58 366.85,-284.58"/>
</g>
<!-- RoutinesModule -->
<g id="node4" class="node">
<title>RoutinesModule</title>
<polygon fill="#8dd3c7" stroke="black" points="511.83,-198 508.83,-202 487.83,-202 484.83,-198 402.17,-198 402.17,-162 511.83,-162 511.83,-198"/>
<text text-anchor="middle" x="457" y="-175.8" font-family="Times,serif" font-size="14.00">RoutinesModule</text>
</g>
<!-- RoutinesModule&#45;&gt;AppModule -->
<g id="edge4" class="edge">
<title>RoutinesModule&#45;&gt;AppModule</title>
<path fill="none" stroke="black" d="M410.5,-198.21C410.5,-198.21 410.5,-284.58 410.5,-284.58"/>
<polygon fill="black" stroke="black" points="407,-284.58 410.5,-294.58 414,-284.58 407,-284.58"/>
</g>
<!-- UsersModule -->
<g id="node5" class="node">
<title>UsersModule</title>
<polygon fill="#8dd3c7" stroke="black" points="620.92,-198 617.92,-202 596.92,-202 593.92,-198 529.08,-198 529.08,-162 620.92,-162 620.92,-198"/>
<text text-anchor="middle" x="575" y="-175.8" font-family="Times,serif" font-size="14.00">UsersModule</text>
</g>
<!-- UsersModule&#45;&gt;AuthModule -->
<g id="edge7" class="edge">
<title>UsersModule&#45;&gt;AuthModule</title>
<path fill="none" stroke="black" d="M575,-198.22C575,-198.22 575,-219.73 575,-219.73"/>
<polygon fill="black" stroke="black" points="571.5,-219.73 575,-229.73 578.5,-219.73 571.5,-219.73"/>
</g>
<!-- UsersModule&#45;&gt;AppModule -->
<g id="edge5" class="edge">
<title>UsersModule&#45;&gt;AppModule</title>
<path fill="none" stroke="black" d="M529,-180C523.88,-180 520.48,-180 520.48,-180 520.48,-180 520.48,-313 520.48,-313 520.48,-313 436.75,-313 436.75,-313"/>
<polygon fill="black" stroke="black" points="436.75,-309.5 426.75,-313 436.75,-316.5 436.75,-309.5"/>
</g>
<!-- AppService -->
<g id="node7" class="node">
<title>AppService</title>
<ellipse fill="#fdb462" stroke="black" cx="81" cy="-248" rx="56.74" ry="18"/>
<text text-anchor="middle" x="81" y="-243.8" font-family="Times,serif" font-size="14.00">AppService</text>
</g>
<!-- AppService&#45;&gt;AppModule -->
<g id="edge6" class="edge">
<title>AppService&#45;&gt;AppModule</title>
<path fill="none" stroke="black" d="M134.5,-242C214.69,-242 356.76,-242 356.76,-242 356.76,-242 356.76,-284.72 356.76,-284.72"/>
<polygon fill="black" stroke="black" points="353.26,-284.72 356.76,-294.72 360.26,-284.72 353.26,-284.72"/>
</g>
<!-- JwtStrategy -->
<g id="node8" class="node">
<title>JwtStrategy</title>
<ellipse fill="#fdb462" stroke="black" cx="718" cy="-180" rx="56.76" ry="18"/>
<text text-anchor="middle" x="718" y="-175.8" font-family="Times,serif" font-size="14.00">JwtStrategy</text>
</g>
<!-- JwtStrategy&#45;&gt;AuthModule -->
<g id="edge8" class="edge">
<title>JwtStrategy&#45;&gt;AuthModule</title>
<path fill="none" stroke="black" d="M718,-198.22C718,-218.37 718,-248 718,-248 718,-248 628.68,-248 628.68,-248"/>
<polygon fill="black" stroke="black" points="628.68,-244.5 618.68,-248 628.68,-251.5 628.68,-244.5"/>
</g>
<!-- PlansService -->
<g id="node9" class="node">
<title>PlansService</title>
<ellipse fill="#fdb462" stroke="black" cx="310" cy="-104" rx="60.83" ry="18"/>
<text text-anchor="middle" x="310" y="-99.8" font-family="Times,serif" font-size="14.00">PlansService</text>
</g>
<!-- PlansService&#45;&gt;PlansModule -->
<g id="edge9" class="edge">
<title>PlansService&#45;&gt;PlansModule</title>
<path fill="none" stroke="black" d="M332.49,-120.87C332.49,-120.87 332.49,-151.85 332.49,-151.85"/>
<polygon fill="black" stroke="black" points="328.99,-151.85 332.49,-161.85 335.99,-151.85 328.99,-151.85"/>
</g>
<!-- RoutinesService -->
<g id="node10" class="node">
<title>RoutinesService</title>
<ellipse fill="#fdb462" stroke="black" cx="485" cy="-104" rx="74.15" ry="18"/>
<text text-anchor="middle" x="485" y="-99.8" font-family="Times,serif" font-size="14.00">RoutinesService</text>
</g>
<!-- RoutinesService&#45;&gt;RoutinesModule -->
<g id="edge10" class="edge">
<title>RoutinesService&#45;&gt;RoutinesModule</title>
<path fill="none" stroke="black" d="M461.17,-121.25C461.17,-121.25 461.17,-151.76 461.17,-151.76"/>
<polygon fill="black" stroke="black" points="457.67,-151.76 461.17,-161.76 464.67,-151.76 457.67,-151.76"/>
</g>
</g>
</svg>
