<?xml version="1.0" encoding="UTF-8" standalone="no"?>
<!DOCTYPE svg PUBLIC "-//W3C//DTD SVG 1.1//EN"
 "http://www.w3.org/Graphics/SVG/1.1/DTD/svg11.dtd">
<!-- Generated by graphviz version 2.47.0 (20210316.0004)
 -->
<!-- Title: dependencies Pages: 1 -->
<svg width="698pt" height="355pt"
 viewBox="0.00 0.00 698.00 355.00" xmlns="http://www.w3.org/2000/svg" xmlns:xlink="http://www.w3.org/1999/xlink">
<g id="graph0" class="graph" transform="scale(1 1) rotate(0) translate(4 351)">
<title>dependencies</title>
<polygon fill="white" stroke="transparent" points="-4,4 -4,-351 694,-351 694,4 -4,4"/>
<text text-anchor="start" x="324.01" y="-42.4" font-family="Times-12" font-weight="bold" font-size="14.00">Legend</text>
<polygon fill="#ffffb3" stroke="transparent" points="111,-10 111,-30 131,-30 131,-10 111,-10"/>
<text text-anchor="start" x="134.63" y="-15.4" font-family="Times-12" font-size="14.00"> &#160;Declarations</text>
<polygon fill="#8dd3c7" stroke="transparent" points="224,-10 224,-30 244,-30 244,-10 224,-10"/>
<text text-anchor="start" x="247.73" y="-15.4" font-family="Times-12" font-size="14.00"> &#160;Module</text>
<polygon fill="#80b1d3" stroke="transparent" points="310,-10 310,-30 330,-30 330,-10 310,-10"/>
<text text-anchor="start" x="333.78" y="-15.4" font-family="Times-12" font-size="14.00"> &#160;Bootstrap</text>
<polygon fill="#fdb462" stroke="transparent" points="407,-10 407,-30 427,-30 427,-10 407,-10"/>
<text text-anchor="start" x="430.67" y="-15.4" font-family="Times-12" font-size="14.00"> &#160;Providers</text>
<polygon fill="#fb8072" stroke="transparent" points="503,-10 503,-30 523,-30 523,-10 503,-10"/>
<text text-anchor="start" x="526.73" y="-15.4" font-family="Times-12" font-size="14.00"> &#160;Exports</text>
<g id="clust1" class="cluster">
<title>cluster_AppModule</title>
<polygon fill="none" stroke="black" stroke-dasharray="1,5" points="8,-146 8,-339 528,-339 528,-146 8,-146"/>
</g>
<g id="clust3" class="cluster">
<title>cluster_AppModule_imports</title>
<polygon fill="none" stroke="black" points="154,-154 154,-274 520,-274 520,-154 154,-154"/>
</g>
<g id="clust6" class="cluster">
<title>cluster_AppModule_providers</title>
<polygon fill="none" stroke="black" points="16,-222 16,-274 146,-274 146,-222 16,-222"/>
</g>
<g id="clust7" class="cluster">
<title>cluster_AuthModule</title>
<polygon fill="none" stroke="black" stroke-dasharray="1,5" points="536,-146 536,-214 682,-214 682,-146 536,-146"/>
</g>
<g id="clust12" class="cluster">
<title>cluster_AuthModule_providers</title>
<polygon fill="none" stroke="black" points="544,-154 544,-206 674,-206 674,-154 544,-154"/>
</g>
<g id="clust25" class="cluster">
<title>cluster_RoutinesModule</title>
<polygon fill="none" stroke="black" stroke-dasharray="1,5" points="127,-70 127,-138 307,-138 307,-70 127,-70"/>
</g>
<g id="clust30" class="cluster">
<title>cluster_RoutinesModule_providers</title>
<polygon fill="none" stroke="black" points="135,-78 135,-130 299,-130 299,-78 135,-78"/>
</g>
<!-- AuthModule -->
<g id="node1" class="node">
<title>AuthModule</title>
<polygon fill="#8dd3c7" stroke="black" points="509.55,-266 506.55,-270 485.55,-270 482.55,-266 422.45,-266 422.45,-230 509.55,-230 509.55,-266"/>
<text text-anchor="middle" x="466" y="-243.8" font-family="Times,serif" font-size="14.00">AuthModule</text>
</g>
<!-- AppModule -->
<g id="node6" class="node">
<title>AppModule</title>
<polygon fill="#8dd3c7" stroke="black" points="319.66,-331 316.66,-335 295.66,-335 292.66,-331 236.34,-331 236.34,-295 319.66,-295 319.66,-331"/>
<text text-anchor="middle" x="278" y="-308.8" font-family="Times,serif" font-size="14.00">AppModule</text>
</g>
<!-- AuthModule&#45;&gt;AppModule -->
<g id="edge1" class="edge">
<title>AuthModule&#45;&gt;AppModule</title>
<path fill="none" stroke="black" d="M466,-266.28C466,-287.32 466,-319 466,-319 466,-319 329.72,-319 329.72,-319"/>
<polygon fill="black" stroke="black" points="329.72,-315.5 319.72,-319 329.72,-322.5 329.72,-315.5"/>
</g>
<!-- ExercisesModule -->
<g id="node2" class="node">
<title>ExercisesModule</title>
<polygon fill="#8dd3c7" stroke="black" points="402.69,-198 399.69,-202 378.69,-202 375.69,-198 289.31,-198 289.31,-162 402.69,-162 402.69,-198"/>
<text text-anchor="middle" x="346" y="-175.8" font-family="Times,serif" font-size="14.00">ExercisesModule</text>
</g>
<!-- PlansModule -->
<g id="node3" class="node">
<title>PlansModule</title>
<polygon fill="#8dd3c7" stroke="black" points="396.88,-266 393.88,-270 372.88,-270 369.88,-266 307.12,-266 307.12,-230 396.88,-230 396.88,-266"/>
<text text-anchor="middle" x="352" y="-243.8" font-family="Times,serif" font-size="14.00">PlansModule</text>
</g>
<!-- ExercisesModule&#45;&gt;PlansModule -->
<g id="edge9" class="edge">
<title>ExercisesModule&#45;&gt;PlansModule</title>
<path fill="none" stroke="black" d="M352,-198.22C352,-198.22 352,-219.73 352,-219.73"/>
<polygon fill="black" stroke="black" points="348.5,-219.73 352,-229.73 355.5,-219.73 348.5,-219.73"/>
</g>
<!-- ExercisesModule&#45;&gt;AppModule -->
<g id="edge2" class="edge">
<title>ExercisesModule&#45;&gt;AppModule</title>
<path fill="none" stroke="black" d="M298.23,-198.21C298.23,-198.21 298.23,-284.58 298.23,-284.58"/>
<polygon fill="black" stroke="black" points="294.73,-284.58 298.23,-294.58 301.73,-284.58 294.73,-284.58"/>
</g>
<!-- PlansModule&#45;&gt;AppModule -->
<g id="edge3" class="edge">
<title>PlansModule&#45;&gt;AppModule</title>
<path fill="none" stroke="black" d="M313.44,-266.11C313.44,-266.11 313.44,-284.99 313.44,-284.99"/>
<polygon fill="black" stroke="black" points="309.94,-284.99 313.44,-294.99 316.94,-284.99 309.94,-284.99"/>
</g>
<!-- RoutinesModule -->
<g id="node4" class="node">
<title>RoutinesModule</title>
<polygon fill="#8dd3c7" stroke="black" points="271.83,-198 268.83,-202 247.83,-202 244.83,-198 162.17,-198 162.17,-162 271.83,-162 271.83,-198"/>
<text text-anchor="middle" x="217" y="-175.8" font-family="Times,serif" font-size="14.00">RoutinesModule</text>
</g>
<!-- RoutinesModule&#45;&gt;AppModule -->
<g id="edge4" class="edge">
<title>RoutinesModule&#45;&gt;AppModule</title>
<path fill="none" stroke="black" d="M259.83,-198.21C259.83,-198.21 259.83,-284.58 259.83,-284.58"/>
<polygon fill="black" stroke="black" points="256.33,-284.58 259.83,-294.58 263.33,-284.58 256.33,-284.58"/>
</g>
<!-- UsersModule -->
<g id="node5" class="node">
<title>UsersModule</title>
<polygon fill="#8dd3c7" stroke="black" points="511.92,-198 508.92,-202 487.92,-202 484.92,-198 420.08,-198 420.08,-162 511.92,-162 511.92,-198"/>
<text text-anchor="middle" x="466" y="-175.8" font-family="Times,serif" font-size="14.00">UsersModule</text>
</g>
<!-- UsersModule&#45;&gt;AuthModule -->
<g id="edge7" class="edge">
<title>UsersModule&#45;&gt;AuthModule</title>
<path fill="none" stroke="black" d="M466,-198.22C466,-198.22 466,-219.73 466,-219.73"/>
<polygon fill="black" stroke="black" points="462.5,-219.73 466,-229.73 469.5,-219.73 462.5,-219.73"/>
</g>
<!-- UsersModule&#45;&gt;AppModule -->
<g id="edge5" class="edge">
<title>UsersModule&#45;&gt;AppModule</title>
<path fill="none" stroke="black" d="M419.97,-180C414.85,-180 411.44,-180 411.44,-180 411.44,-180 411.44,-307 411.44,-307 411.44,-307 329.86,-307 329.86,-307"/>
<polygon fill="black" stroke="black" points="329.86,-303.5 319.86,-307 329.86,-310.5 329.86,-303.5"/>
</g>
<!-- AppService -->
<g id="node7" class="node">
<title>AppService</title>
<ellipse fill="#fdb462" stroke="black" cx="81" cy="-248" rx="56.74" ry="18"/>
<text text-anchor="middle" x="81" y="-243.8" font-family="Times,serif" font-size="14.00">AppService</text>
</g>
<!-- AppService&#45;&gt;AppModule -->
<g id="edge6" class="edge">
<title>AppService&#45;&gt;AppModule</title>
<path fill="none" stroke="black" d="M138.01,-248C186.38,-248 248,-248 248,-248 248,-248 248,-284.89 248,-284.89"/>
<polygon fill="black" stroke="black" points="244.5,-284.89 248,-294.89 251.5,-284.89 244.5,-284.89"/>
</g>
<!-- JwtStrategy -->
<g id="node8" class="node">
<title>JwtStrategy</title>
<ellipse fill="#fdb462" stroke="black" cx="609" cy="-180" rx="56.76" ry="18"/>
<text text-anchor="middle" x="609" y="-175.8" font-family="Times,serif" font-size="14.00">JwtStrategy</text>
</g>
<!-- JwtStrategy&#45;&gt;AuthModule -->
<g id="edge8" class="edge">
<title>JwtStrategy&#45;&gt;AuthModule</title>
<path fill="none" stroke="black" d="M609,-198.22C609,-218.37 609,-248 609,-248 609,-248 519.68,-248 519.68,-248"/>
<polygon fill="black" stroke="black" points="519.68,-244.5 509.68,-248 519.68,-251.5 519.68,-244.5"/>
</g>
<!-- RoutinesService -->
<g id="node9" class="node">
<title>RoutinesService</title>
<ellipse fill="#fdb462" stroke="black" cx="217" cy="-104" rx="74.15" ry="18"/>
<text text-anchor="middle" x="217" y="-99.8" font-family="Times,serif" font-size="14.00">RoutinesService</text>
</g>
<!-- RoutinesService&#45;&gt;RoutinesModule -->
<g id="edge10" class="edge">
<title>RoutinesService&#45;&gt;RoutinesModule</title>
<path fill="none" stroke="black" d="M217,-122.01C217,-122.01 217,-151.85 217,-151.85"/>
<polygon fill="black" stroke="black" points="213.5,-151.85 217,-161.85 220.5,-151.85 213.5,-151.85"/>
</g>
</g>
</svg>
